<?xml version="1.0" standalone="no"?>
<!DOCTYPE svg PUBLIC "-//W3C//DTD SVG 20010904//EN"
 "http://www.w3.org/TR/2001/REC-SVG-20010904/DTD/svg10.dtd">
<svg version="1.0" xmlns="http://www.w3.org/2000/svg"
 width="300.000000pt" height="300.000000pt" viewBox="0 0 300.000000 300.000000"
 preserveAspectRatio="xMidYMid meet">

<g transform="translate(0.000000,300.000000) scale(0.100000,-0.100000)"
fill="#000000" stroke="none">
<path d="M1330 2989 c-320 -33 -627 -180 -872 -417 -328 -318 -490 -753 -449
-1203 32 -353 172 -657 418 -910 258 -265 574 -416 942 -450 656 -60 1270 319
1526 941 79 194 116 458 96 681 -34 368 -185 684 -450 942 -326 317 -751 463
-1211 416z m401 -224 c198 -33 424 -134 570 -255 l45 -38 107 17 c97 16 107
16 107 2 0 -9 -5 -62 -12 -117 l-11 -102 52 -82 c65 -101 112 -203 145 -312
44 -150 51 -196 51 -378 0 -182 -7 -228 -51 -378 -97 -323 -346 -618 -652
-771 -362 -181 -799 -180 -1161 3 -92 47 -228 146 -308 223 -352 342 -481 860
-328 1320 37 112 94 229 149 312 l37 54 -24 118 c-27 139 -39 128 113 103 l98
-15 66 50 c294 223 637 307 1007 246z"/>
<path d="M1163 2482 c-298 -75 -303 -77 -302 -102 0 -14 10 -98 22 -187 l22
-162 255 -184 255 -183 14 -130 c7 -71 15 -131 17 -133 2 -3 15 6 29 19 l25
23 25 -23 c14 -13 27 -22 29 -19 2 2 10 62 17 133 l14 130 255 183 255 184 22
162 c12 89 22 173 22 187 1 26 -2 27 -316 103 -175 42 -327 77 -338 76 -11 0
-156 -35 -322 -77z"/>
<path d="M475 2438 c3 -13 23 -121 44 -242 22 -120 43 -222 48 -226 4 -4 153
-122 329 -263 316 -250 322 -256 339 -307 9 -28 15 -53 14 -55 -2 -1 -39 -24
-82 -50 l-77 -47 -143 92 c-78 51 -148 98 -155 105 -10 9 0 15 49 30 l61 19
124 -41 c68 -23 124 -40 124 -38 0 12 -534 415 -540 408 -6 -6 -140 -462 -140
-476 0 -2 135 -113 300 -247 l300 -244 -21 -23 -22 -22 -59 47 c-33 26 -79 62
-104 80 l-44 34 0 -36 c0 -33 6 -40 85 -100 l85 -64 -19 -23 -18 -23 -50 32
c-27 18 -53 32 -57 32 -4 0 -6 -19 -4 -42 l3 -43 137 -93 c128 -86 137 -95
143 -130 6 -39 37 -105 67 -144 17 -23 18 -23 18 42 1 108 -5 103 138 141
l127 34 3 113 3 112 -64 0 -64 0 -53 123 c-29 67 -54 124 -56 126 -1 1 -45
-11 -98 -29 l-95 -31 -218 182 c-120 100 -222 185 -226 189 -8 7 11 60 22 60
3 0 102 -77 220 -170 118 -94 219 -170 225 -170 11 0 113 37 128 46 4 3 1 21
-7 39 -13 32 -12 36 5 45 10 5 20 10 22 10 2 0 42 -77 88 -170 59 -118 89
-169 98 -165 8 3 55 5 105 5 l92 0 83 165 c45 91 85 165 89 165 5 0 14 -4 22
-9 12 -8 12 -14 1 -41 -16 -39 -10 -46 72 -74 l55 -18 221 175 220 176 13 -31
c11 -28 10 -33 -7 -47 -11 -9 -112 -94 -225 -188 l-206 -173 -89 30 c-48 17
-93 29 -98 27 -5 -2 -32 -57 -61 -123 l-51 -119 -67 -3 -67 -3 0 -109 0 -109
53 -15 c28 -8 89 -24 133 -37 l82 -22 7 -84 7 -85 34 57 c19 31 37 76 41 100
5 43 7 44 144 137 l138 93 1 48 0 48 -52 -35 c-49 -33 -53 -34 -70 -19 -10 9
-18 20 -18 24 0 5 35 34 78 65 42 32 80 62 84 68 10 14 10 66 1 66 -5 -1 -53
-36 -108 -80 -93 -73 -101 -78 -117 -63 -10 9 -18 21 -17 27 0 6 131 117 291
246 160 129 293 241 295 248 3 7 -25 120 -63 252 l-68 239 -35 -28 c-20 -15
-137 -105 -261 -201 -124 -95 -232 -179 -240 -186 -8 -8 44 5 115 29 l130 43
63 -19 c35 -10 62 -21 59 -23 -2 -2 -73 -49 -157 -104 -140 -90 -156 -98 -175
-86 -11 7 -46 28 -77 46 -32 17 -58 36 -58 42 0 5 5 29 11 53 10 41 25 55 343
308 l332 266 43 236 c24 130 41 239 37 242 -8 9 -298 -54 -306 -66 -3 -7 -12
-91 -19 -188 -6 -97 -14 -180 -17 -184 -2 -4 -115 -92 -252 -195 -136 -103
-254 -193 -262 -201 -10 -9 -18 -53 -26 -141 l-11 -127 46 -49 c25 -27 39 -46
31 -44 -8 3 -57 23 -108 43 l-94 38 -91 -38 c-51 -20 -99 -40 -107 -43 -8 -3
5 16 29 41 l44 45 -12 129 c-7 70 -17 133 -22 139 -5 7 -124 98 -264 204 -293
221 -257 167 -276 425 -5 82 -12 151 -13 152 -3 3 -295 63 -308 63 -4 0 -6
-10 -3 -22z"/>
</g>
</svg>
